<svg xmlns="http://www.w3.org/2000/svg" width="32" height="32" viewBox="0 0 32 32">
  <defs>
    <linearGradient id="g" x1="0" y1="0" x2="1" y2="1">
      <stop offset="0" stop-color="#0284c7" />
      <stop offset="1" stop-color="#0e7490" />
    </linearGradient>
  </defs>
  <rect width="32" height="32" rx="7" fill="url(#g)" />
  <g transform="translate(6 6) scale(0.833)" fill="#ffffff">
    <path d="M12 5.4C10.5 3.6 8.7 2.9 7 2.9 4.6 2.9 3 4.7 3 7.4c0 1.6.4 3.2.9 5 .3 1 .5 2 .7 3 .3 1.6.6 3.2 1.1 4.3.3.7.7 1.2 1.3 1.2.7 0 1-.8 1.3-2 .3-1.2.5-2.7.8-3.8.2-.9.7-1.4 1.6-1.4s1.4.5 1.6 1.4c.3 1.1.5 2.6.8 3.8.3 1.2.6 2 1.3 2 .6 0 1-.5 1.3-1.2.5-1.1.8-2.7 1.1-4.3.2-1 .4-2 .7-3 .5-1.8.9-3.4.9-5 0-2.7-1.6-4.5-4-4.5-1.7 0-3.5.7-5 2.5z" />
  </g>
</svg>
